<?xml version="1.0" encoding="utf-8"?>
<!-- Generator: Adobe Illustrator 25.1.0, SVG Export Plug-In . SVG Version: 6.00 Build 0)  -->
<svg version="1.1" id="Ñëîé_1" xmlns="http://www.w3.org/2000/svg" xmlns:xlink="http://www.w3.org/1999/xlink" x="0px" y="0px"
	 viewBox="0 0 26.9 17.92" style="enable-background:new 0 0 26.9 17.92;" xml:space="preserve">
<style type="text/css">
	.st0{fill:url(#SVGID_1_);}
	.st1{opacity:0.5;fill:#6EE8FC;}
	.st2{fill:#6EE8FC;}
	.st3{opacity:0.5;fill:#D4088C;}
</style>
<g>
	<linearGradient id="SVGID_1_" gradientUnits="userSpaceOnUse" x1="0" y1="8.9652" x2="26.8953" y2="8.9652">
		<stop  offset="0" style="stop-color:#8D139B"/>
		<stop  offset="0.1651" style="stop-color:#851BA1"/>
		<stop  offset="0.4284" style="stop-color:#6E33B2"/>
		<stop  offset="0.7551" style="stop-color:#4958CD"/>
		<stop  offset="1" style="stop-color:#2979E4"/>
	</linearGradient>
	<path class="st0" d="M26.26,7.43l-6.8-6.8c-0.85-0.85-2.22-0.85-3.06,0l-2.95,2.95L10.5,0.63c-0.85-0.85-2.22-0.85-3.06,0l-6.8,6.8
		c-0.85,0.85-0.85,2.22,0,3.06l6.8,6.8c0.85,0.85,2.22,0.85,3.06,0l2.95-2.95l2.95,2.95c0.85,0.85,2.22,0.85,3.06,0l6.8-6.8
		C27.11,9.65,27.11,8.28,26.26,7.43z"/>
	<path class="st1" d="M19.46,0.63l6.8,6.8c0.85,0.85,0.85,2.22,0,3.06l-6.8,6.8c-0.85,0.85-2.22,0.85-3.06,0l-6.8-6.8
		c-0.85-0.85-0.85-2.22,0-3.06l6.8-6.8C17.25-0.21,18.62-0.21,19.46,0.63z"/>
	<path class="st2" d="M26.26,7.44l-6.8-6.8c-0.51-0.51-1.21-0.71-1.87-0.6c0.44,0.07,0.86,0.27,1.19,0.6l6.8,6.8
		c0.85,0.84,0.85,2.22,0,3.06l-6.8,6.8c-0.34,0.34-0.76,0.53-1.19,0.6c0.66,0.1,1.36-0.09,1.87-0.6l6.8-6.8
		C27.11,9.65,27.11,8.28,26.26,7.44z"/>
	<path class="st3" d="M10.5,0.63l6.8,6.8c0.85,0.85,0.85,2.22,0,3.06l-6.8,6.8c-0.85,0.85-2.22,0.85-3.06,0l-6.8-6.8
		c-0.85-0.85-0.85-2.22,0-3.06l6.8-6.8C8.28-0.21,9.65-0.21,10.5,0.63z"/>
</g>
</svg>
